PathFileType	4	(X/Y/Z)	C:\Users\Basilio\Documents\Thesis Gigler\squatting_fais\c3dfiles\073\SLS_back_pre5\markers_experimental.trc
DataRate	CameraRate	NumFrames	NumMarkers	Units	OrigDataRate	OrigDataStartFrame	OrigNumFrames
200.000000	200.000000	4	61	mm	200.000000	192	1539
Frame#	Time	FHD			LBHD			RBHD			C7			T10			CLAV			LSHO			LUUPA			LMUPA			LDUPA			LLEP			LMEP			LRAD			LUL			LRFIN			RSHO			RUPA1			RMUPA			RDUPA			RLEP			RMEP			RUL			RUFIN			LASI			RASI			USACR			LSACR			RSACR			LTHI1			LTHI2			LTHI3			LTHI4			LLFC			LTIB1			LTIB2			LTIB3			LTIB4			LLMAL			LMMAL			LHEE			LMT1			LMT2			LMT5			RTHI			RTHI2			RTHI3			RTHI4			RLFC			RMFC			RTIB1			RTIB2			RTIB3			RTIB4			RLMAL			RMMAL			RHEE			RMT1			RMT2			RMT5			LMFC			RRAD			
		X1	Y1	Z1	X2	Y2	Z2	X3	Y3	Z3	X4	Y4	Z4	X5	Y5	Z5	X6	Y6	Z6	X7	Y7	Z7	X8	Y8	Z8	X9	Y9	Z9	X10	Y10	Z10	X11	Y11	Z11	X12	Y12	Z12	X13	Y13	Z13	X14	Y14	Z14	X15	Y15	Z15	X16	Y16	Z16	X17	Y17	Z17	X18	Y18	Z18	X19	Y19	Z19	X20	Y20	Z20	X21	Y21	Z21	X22	Y22	Z22	X23	Y23	Z23	X24	Y24	Z24	X25	Y25	Z25	X26	Y26	Z26	X27	Y27	Z27	X28	Y28	Z28	X29	Y29	Z29	X30	Y30	Z30	X31	Y31	Z31	X32	Y32	Z32	X33	Y33	Z33	X34	Y34	Z34	X35	Y35	Z35	X36	Y36	Z36	X37	Y37	Z37	X38	Y38	Z38	X39	Y39	Z39	X40	Y40	Z40	X41	Y41	Z41	X42	Y42	Z42	X43	Y43	Z43	X44	Y44	Z44	X45	Y45	Z45	X46	Y46	Z46	X47	Y47	Z47	X48	Y48	Z48	X49	Y49	Z49	X50	Y50	Z50	X51	Y51	Z51	X52	Y52	Z52	X53	Y53	Z53	X54	Y54	Z54	X55	Y55	Z55	X56	Y56	Z56	X57	Y57	Z57	X58	Y58	Z58	X59	Y59	Z59	X60	Y60	Z60	X61	Y61	Z61	

193	0.96	-168.3388366699219	1683.733764648438	-736.4627075195314	-303.0996093750001	1654.645141601563	-759.5007324218751	-324.2843933105469	1633.439453125	-626.2492065429689	-356.5655517578126	1532.543823242188	-691.6712036132814	-412.7550659179689	1200.208618164063	-720.1414184570314	-232.6118621826172	1449.056884765625	-695.2481689453126	-265.6161804199219	1504.318603515625	-834.0209960937502	-182.6839599609375	1436.150634765625	-931.1411743164065	-142.0925903320313	1456.264038085938	-908.6016235351565	-119.198486328125	1411.544677734375	-943.7370605468752	-14.49078369140625	1389.885620117188	-948.3323364257815	-17.51603698730469	1330.681274414063	-909.1978759765627	238.4152526855469	1417.576782226563	-821.782165527344	245.5864410400391	1420.03173828125	-895.943786621094	320.7604675292969	1427.714233398438	-810.252136230469	-247.5279846191407	1482.260864257813	-548.9356689453126	-155.2422332763672	1369.925903320313	-459.6671142578126	-115.6116333007813	1393.045654296875	-473.6533813476564	-92.35621643066408	1340.74853515625	-455.901824951172	-1.145609736442566	1322.701782226563	-458.0747680664064	-6.24575710296631	1273.4619140625	-525.5502319335939	256.9425659179688	1372.475341796875	-506.6032104492189	336.2605285644532	1395.147583007813	-585.0083007812501	-256.4330444335938	1029.812622070313	-850.7949829101565	-254.7762603759766	1024.753784179688	-601.2579956054689	-435.9336853027345	1099.255737304688	-724.5381469726564	-448.4940490722657	1071.125732421875	-753.2503662109376	-453.7537231445314	1069.002197265625	-697.1182861328126	-257.5458679199219	706.3717041015626	-905.7163696289065	-212.6069335937501	635.7285766601564	-889.023132324219	-172.3693084716797	644.5365600585939	-861.7727661132815	-236.2564697265626	580.6015625000001	-881.4166259765627	-244.0496826171876	534.4219360351564	-880.9357910156252	-384.6627807617189	409.3868103027345	-830.5400390625002	-444.943817138672	448.1295166015626	-880.9727172851565	-436.313446044922	409.3786010742189	-861.6462402343752	-507.7452392578126	380.7152099609376	-825.7746582031252	-640.4446411132814	395.5663146972657	-850.7869873046877	-610.2005615234376	394.1504211425782	-765.5372314453126	-680.6169433593751	447.978240966797	-806.431579589844	-636.6748657226564	230.2529449462891	-763.3886108398439	-642.9556274414064	225.1084747314454	-799.8843994140627	-675.1687011718751	252.9435424804688	-852.878112792969	-354.2926940917969	797.1496582031252	-547.6048583984376	-319.0097656250001	741.4521484375001	-549.7538452148439	-285.4077148437501	743.1146850585939	-549.3012695312501	-343.6684265136719	666.3409423828126	-576.3546142578126	-327.5377502441407	515.7135009765626	-601.7728881835939	-313.4723815917969	514.0495605468751	-732.2794189453126	-284.3918457031251	358.5495300292969	-699.7664794921876	-316.3388977050782	272.1952514648438	-642.1883544921876	-288.8768310546876	273.2969970703126	-682.1238403320314	-306.4902343750001	232.4060974121094	-719.9105834960939	-361.8030700683594	97.532096862793	-683.3265380859376	-352.7825622558594	130.9405364990235	-766.7725219726564	-431.1181030273439	82.18323516845705	-742.6659545898439	-206.9065246582032	56.57824325561525	-759.1472167968751	-206.3556823730469	51.0137176513672	-718.2619628906251	-248.7511138916016	33.2945671081543	-669.4714355468751	-249.5027313232422	530.2651367187501	-746.3395996093751	nan	nan	nan	
194	0.965	-168.2467041015625	1683.738647460938	-736.4632568359376	-303.1030883789063	1654.621826171875	-759.4771728515626	-324.2261047363282	1633.451293945313	-626.2858886718751	-356.4960021972657	1532.536865234375	-691.6981201171876	-412.6748657226564	1200.200561523438	-720.2073974609376	-232.5494689941407	1448.9892578125	-695.3186035156251	-265.5362854003907	1504.310302734375	-834.0921020507815	-182.5664520263672	1436.176025390625	-931.139099121094	-141.999496459961	1456.265869140625	-908.6099853515627	-119.015251159668	1411.546020507813	-943.7549438476565	-14.44755172729493	1389.833251953125	-948.425476074219	-17.46928787231446	1330.669311523438	-909.264343261719	238.4739227294922	1417.483764648438	-821.761657714844	245.6553192138672	1419.935302734375	-895.930358886719	320.8507690429688	1427.5771484375	-810.2731933593752	-247.4565582275391	1482.256713867188	-548.9995727539064	-155.2119903564453	1369.88134765625	-459.6695556640626	-115.5582733154297	1392.916259765625	-473.6312561035157	-92.30513000488283	1340.699096679688	-455.9461059570314	-1.097694039344788	1322.668212890625	-458.1368103027345	-6.169456481933596	1273.418701171875	-525.5657348632814	257.0260620117188	1372.42822265625	-506.6425781250001	336.3079833984376	1395.111694335938	-585.0595703125001	-256.5105285644532	1029.688720703125	-850.8759765625002	-254.7427520751954	1024.776000976563	-601.3656005859376	-435.9309692382814	1099.254516601563	-724.5741577148439	-448.5424194335939	1071.171508789063	-753.3052978515626	-453.7627258300782	1069.009521484375	-697.1535644531251	-257.6172180175782	706.2973022460939	-905.658630371094	-212.6054992675782	635.7293090820314	-889.033630371094	-172.3631591796875	644.4998779296876	-861.716979980469	-236.2763977050782	580.5614624023439	-881.414489746094	-244.1388549804688	534.4149169921876	-880.8821411132815	-384.7394104003907	409.4124145507814	-830.4885253906252	-444.9597778320314	448.1111755371095	-880.887390136719	-436.3411865234376	409.3825073242189	-861.5266723632815	-507.7342529296876	380.6867370605469	-825.6507568359377	-640.1890869140626	395.7396240234376	-849.7478027343752	-610.2090454101564	394.0498352050782	-765.3585815429689	-680.6149291992189	447.9180908203126	-806.2239379882815	-636.6482543945314	230.1622924804688	-763.2915039062501	-642.8533325195314	225.1340332031251	-799.8271484375002	-675.1813964843751	253.0304870605469	-852.8010864257815	-354.2443542480469	797.1373291015627	-547.6644897460939	-318.9474487304688	741.4547119140626	-549.7868041992189	-285.3658447265626	743.1347656250001	-549.3356933593751	-343.6377258300782	666.3696899414064	-576.3670654296876	-327.5115966796876	515.7266845703126	-601.7810668945314	-313.4453735351563	514.0153808593751	-732.2604370117189	-284.3993835449219	358.5640258789063	-699.7973022460939	-316.3325805664063	272.1941223144532	-642.2181396484376	-288.8772277832032	273.2980651855469	-682.1204833984376	-306.5120239257813	232.365463256836	-720.0028076171876	-361.7908325195313	97.51255798339847	-683.3857421875001	-352.8040161132813	130.9274139404297	-766.7756958007814	-431.1204528808595	82.1856155395508	-742.6646728515626	-206.9204711914063	56.55988693237306	-759.1587524414064	-206.3656616210938	51.01866912841798	-718.2460937500001	-248.7525787353516	33.2970085144043	-669.4560546875001	-249.5791015625001	530.2683105468751	-746.3209838867189	nan	nan	nan	
195	0.97	-168.0382690429688	1683.727294921875	-736.4548339843751	-302.9574584960938	1654.63916015625	-759.5092773437501	-324.1336364746094	1633.385375976563	-626.2757568359376	-356.3829650878907	1532.531982421875	-691.7542114257814	-412.7215576171876	1200.203247070313	-720.2319946289064	-232.4515686035157	1448.978881835938	-695.3444213867189	-265.4186706542969	1504.297241210938	-834.1120605468752	-182.5090942382813	1436.210327148438	-931.194519042969	-141.9007568359375	1456.252685546875	-908.6780395507815	-119.0079574584961	1411.543090820313	-943.7744140625002	-14.32737731933594	1389.8095703125	-948.4580078125002	-17.35564422607422	1330.633422851563	-909.2648925781252	238.5755004882813	1417.344482421875	-821.804382324219	245.8146057128907	1419.83642578125	-895.994812011719	320.8809814453126	1427.43994140625	-810.3087158203127	-247.3688354492188	1482.213745117188	-549.0638427734376	-155.135009765625	1369.859497070313	-459.7434082031251	-115.4332809448242	1392.925659179688	-474.309295654297	-92.25911712646486	1340.691650390625	-455.9594116210939	-1.04142439365387	1322.670288085938	-458.1445617675782	-6.09479331970215	1273.348876953125	-525.5700683593751	257.0454406738282	1372.424194335938	-506.6279296875001	336.3435058593751	1395.132080078125	-585.0729980468751	-256.4712524414063	1029.673950195313	-850.922302246094	-254.7174987792969	1024.765014648438	-601.4065551757814	-435.9699096679689	1099.256103515625	-724.6201171875001	-448.4929504394532	1071.145629882813	-753.3179931640626	-453.7745361328126	1069.041748046875	-697.1569213867189	-257.6332397460938	706.3001708984376	-905.7381591796877	-212.6452331542969	635.6954345703126	-889.029968261719	-172.3912658691407	644.5092163085939	-861.7104492187502	-236.327621459961	580.5379638671876	-881.3843383789065	-244.1535339355469	534.3473510742189	-880.854187011719	-384.7391967773439	409.3804931640626	-830.3259277343752	-444.9632263183595	448.1100463867189	-880.7437744140627	-436.3263549804689	409.3482666015626	-861.3576660156252	-507.7886657714845	380.6552429199219	-825.5030517578127	-640.1785888671876	395.6773376464845	-849.5848388671877	-610.1439208984376	393.9912414550782	-765.1990356445314	-680.6363525390626	447.8864135742189	-806.0098876953127	-636.6043701171876	230.0991821289063	-763.1033935546876	-642.8202514648439	225.0724334716797	-799.7319335937502	-675.2357788085939	252.9366912841797	-852.5368652343752	-354.1966857910157	797.1437988281252	-547.6911010742189	-318.9427795410157	741.4472656250001	-549.7905883789064	-285.3442687988282	743.1364746093751	-549.3183593750001	-343.6354675292969	666.3644409179689	-576.4141235351564	-327.4916076660157	515.7234497070314	-601.8332519531251	-313.4703674316407	514.0818481445314	-732.2984008789064	-284.3785400390626	358.5442504882813	-699.8852539062501	-316.2999267578126	272.1947631835938	-642.2139892578126	-288.8740539550782	273.2731628417969	-682.1881103515626	-306.5185852050782	232.3880310058594	-719.9891357421876	-361.8107299804688	97.59006500244143	-683.3671264648439	-352.8439941406251	130.9108428955078	-766.7411499023439	-431.1184997558595	82.19671630859376	-742.6570434570314	-206.9101562500001	56.56211471557619	-759.1583862304689	-206.3685607910157	51.01986312866212	-718.2347412109376	-248.7481689453126	33.29469299316407	-669.4640502929689	-249.5914001464844	530.2369995117189	-746.3200073242189	nan	nan	nan	
196	0.975	-168.0409240722657	1683.65478515625	-736.4476928710939	-302.7872009277344	1654.628051757813	-759.5237426757814	-324.0457153320313	1633.334350585938	-626.3090209960939	-356.2957458496094	1532.522216796875	-691.8051147460939	-412.6948547363282	1200.198974609375	-720.2677612304689	-232.3624267578126	1448.967895507813	-695.4101562500001	-265.3428649902344	1504.267578125	-834.1607055664065	-182.3448181152344	1436.209350585938	-931.2254028320315	-141.8159790039063	1456.225952148438	-908.7227783203127	-118.8609695434571	1411.579345703125	-943.8618164062502	-14.21445846557618	1389.763549804688	-948.5496826171877	-17.33934020996094	1330.5908203125	-909.3265380859377	238.6410827636719	1417.24755859375	-821.8873291015627	245.9336242675782	1419.745849609375	-896.0008544921877	321.0062866210938	1427.307495117188	-810.376647949219	-247.3065948486329	1482.203247070313	-549.0925292968751	-155.0764617919922	1369.836791992188	-459.7442932128907	-115.3517456054688	1392.934936523438	-474.3427734375001	-92.2136917114258	1340.640380859375	-455.9905395507814	-0.9757953286170962	1322.629760742188	-458.1618041992189	-6.029428482055666	1273.28759765625	-525.5773925781251	257.1210327148438	1372.40478515625	-506.6642150878907	336.4210205078126	1395.086791992188	-585.0888061523439	-256.5155944824219	1029.659301757813	-850.9936523437502	-254.6929626464844	1024.796875	-601.4129638671876	-435.9171447753907	1099.247924804688	-724.6426391601564	-448.4689331054689	1071.164672851563	-753.3642578125001	-453.7297973632814	1069.025512695313	-697.2073974609376	-257.6824645996094	706.2527465820314	-905.732849121094	-212.6285552978516	635.6738281250001	-888.967224121094	-172.3888397216797	644.4758300781251	-861.7250976562502	-236.368637084961	580.5401000976564	-881.3032226562502	-244.1481323242188	534.3539428710939	-880.829040527344	-384.7403564453126	409.3592529296876	-830.2606201171877	-444.9955139160157	448.0635375976564	-880.6406860351565	-436.3300170898439	409.2960510253907	-861.2686767578127	-507.7510070800782	380.6281738281251	-825.419860839844	-640.5158081054689	395.541473388672	-850.3010253906252	-610.1555786132814	393.947235107422	-765.0661010742189	-680.6532592773439	447.8662414550782	-805.8210449218752	-636.5138549804689	230.0492095947266	-763.0156250000001	-642.8130493164064	225.0284271240235	-799.8015136718752	-675.3019409179689	252.8687133789063	-852.4368286132815	-354.1666564941407	797.1296997070315	-547.7275390625001	-318.9183349609376	741.4500122070314	-549.8211669921876	-285.3098144531251	743.1263427734376	-549.3760986328126	-343.5596618652344	666.3721313476564	-576.4527587890626	-327.4414062500001	515.7171020507814	-601.8782348632814	-313.2732238769532	514.1555175781251	-732.4172973632814	-284.3751525878907	358.5479736328126	-699.8861083984376	-316.2456970214844	272.2197265625001	-642.3378295898439	-288.8392028808594	273.2939147949219	-682.2195434570314	-306.4959411621094	232.4153289794922	-720.0291748046876	-361.8316650390626	97.5924987792969	-683.3600463867189	-352.8413696289063	130.9057769775391	-766.7505493164064	-431.1341552734376	82.17441558837892	-742.6585083007814	-206.9123229980469	56.54454421997072	-759.1540527343751	-206.3724822998047	51.01464843750001	-718.2296752929689	-248.7483673095704	33.29449081420899	-669.4649047851564	-249.6379852294922	530.2680053710939	-746.2551269531251	nan	nan	nan	
